<?xml version="1.0" encoding="UTF-8"?>
<svg id="Capa_1" data-name="Capa 1" xmlns="http://www.w3.org/2000/svg" viewBox="0 0 94.33 22.04">
  <defs>
    <style>
      .cls-1 {
        fill: #406bb2;
      }

      .cls-2 {
        fill: #126e95;
      }
    </style>
  </defs>
  <g>
    <polygon class="cls-1" points="2.2 0 0 0 0 4.41 2.2 4.41 6.61 4.41 6.61 8.82 6.61 13.22 6.61 17.63 6.61 22.04 11.02 17.63 11.02 13.22 11.02 8.82 11.02 4.41 6.61 0 2.2 0"/>
    <polygon class="cls-1" points="12.51 0 8.1 0 12.51 4.41 16.92 4.41 16.92 0 12.51 0"/>
  </g>
  <path class="cls-2" d="M69.89,16.13h3.97v2.34h-6.99V6.04h3.03v10.09Z"/>
  <path class="cls-2" d="M83.47,6.03v2.43h-3.29v10h-3.03v-10h-3.29v-2.43h9.61Z"/>
  <path class="cls-2" d="M87.36,18.17c-.72-.29-1.3-.73-1.73-1.31-.43-.58-.66-1.27-.68-2.09h3.22c.05.46.21.81.48,1.05.27.24.63.36,1.06.36s.8-.1,1.06-.31c.26-.21.39-.49.39-.86,0-.31-.1-.56-.31-.76-.21-.2-.46-.37-.76-.5-.3-.13-.73-.28-1.28-.44-.8-.25-1.46-.5-1.97-.74-.51-.25-.94-.61-1.31-1.1-.37-.48-.55-1.12-.55-1.89,0-1.16.42-2.06,1.26-2.72.84-.66,1.93-.98,3.28-.98s2.47.33,3.31.98c.84.66,1.29,1.57,1.35,2.74h-3.28c-.02-.4-.17-.72-.44-.95-.27-.23-.62-.35-1.04-.35-.37,0-.66.1-.89.29-.22.19-.34.48-.34.84,0,.4.19.71.57.94.38.22.97.47,1.77.73.8.27,1.45.53,1.96.78.5.25.94.61,1.3,1.08.37.47.55,1.08.55,1.82s-.18,1.35-.54,1.93c-.36.58-.88,1.04-1.57,1.38-.68.34-1.49.51-2.43.51s-1.72-.15-2.44-.44Z"/>
  <path class="cls-2" d="M47.09,18.62h-3.1l-5.19-7.85v7.85h-3.1V5.89h3.1l5.19,7.89v-7.89h3.1v12.73Z"/>
  <polygon class="cls-1" points="63.11 5.75 63.11 18.75 63.11 21.26 64.63 18.75 64.63 5.75 64.63 3.24 63.11 5.75"/>
  <path class="cls-2" d="M51.82,17.94c-1-.56-1.79-1.33-2.38-2.33-.59-1-.88-2.12-.88-3.36s.29-2.36.88-3.35c.59-.99,1.38-1.76,2.38-2.32,1-.56,2.09-.83,3.29-.83s2.29.28,3.29.83c1,.56,1.78,1.33,2.36,2.32.57.99.86,2.11.86,3.35s-.29,2.37-.87,3.36c-.58,1-1.37,1.77-2.36,2.33-.99.56-2.09.83-3.28.83s-2.29-.28-3.29-.83ZM57.55,14.93c.61-.68.92-1.57.92-2.68s-.31-2.02-.92-2.69c-.61-.67-1.42-1.01-2.44-1.01s-1.85.33-2.46,1c-.61.67-.92,1.57-.92,2.7s.31,2.02.92,2.69c.61.67,1.43,1.01,2.46,1.01s1.83-.34,2.44-1.02Z"/>
  <path class="cls-2" d="M22.6,8.9c.54-.99,1.3-1.75,2.28-2.3.97-.55,2.08-.83,3.31-.83,1.51,0,2.8.4,3.88,1.2,1.08.8,1.8,1.89,2.16,3.26h-3.41c-.25-.53-.61-.94-1.08-1.21-.47-.28-.99-.42-1.59-.42-.96,0-1.73.33-2.32,1-.59.66-.89,1.55-.89,2.67s.3,2,.89,2.67c.59.66,1.37,1,2.32,1,.59,0,1.12-.14,1.59-.42.47-.28.83-.68,1.08-1.21h3.41c-.36,1.38-1.08,2.46-2.16,3.25-1.08.79-2.37,1.19-3.88,1.19-1.23,0-2.34-.27-3.31-.83-.97-.55-1.73-1.31-2.28-2.29-.54-.98-.82-2.1-.82-3.35s.27-2.38.82-3.36Z"/>
  <path class="cls-2" d="M15.6,8.37v2.57h4.15v2.39h-4.15v2.79h4.7v2.48h-7.8V5.89h7.8v2.48h-4.7Z"/>
</svg>